<svg width="250" height="240" viewBox="0 -30 250 250" xmlns="http://www.w3.org/2000/svg">
  <defs>
    <filter id="ballGlow" x="-80%" y="-80%" width="260%" height="260%">
      <feDropShadow dx="0" dy="0" stdDeviation="10" flood-color="#ef6c32" flood-opacity="0.5">
        <animate attributeName="stdDeviation" values="8;20;8" dur="1.5s" repeatCount="indefinite"/>
      </feDropShadow>
    </filter>
    <filter id="boltGlow" x="-80%" y="-80%" width="260%" height="260%">
      <feDropShadow dx="0" dy="0" stdDeviation="14" flood-color="#00ff9c" flood-opacity="1">
        <animate attributeName="stdDeviation" values="5;25;5" dur="1.5s" repeatCount="indefinite"/>
      </feDropShadow>
    </filter>
    <filter id="textShadow" x="-20%" y="-20%" width="140%" height="140%">
      <feDropShadow dx="0" dy="2" stdDeviation="3" flood-color="#000000" fill-opacity="0.8"/>
    </filter>
  </defs>

  <g transform="translate(-20,0)">
    <rect x="20" y="24" width="250" height="200" rx="18" fill="#1D4289"/>
    <rect x="20" y="190" width="250" height="14" rx="3" fill="#EF3340"/>
    <rect x="20" y="200" width="250" height="14" rx="3" fill="#FFFFFF"/>

    <g filter="url(#ballGlow)" transform="translate(150 80) scale(1.1) translate(-64 -85)">
      <circle cx="64" cy="64" r="62" fill="none" stroke="#ffffff" stroke-opacity="0.14" stroke-width="4"/>
      <path d="M22.31 108.22s19.22 20.22 52.19 15.09c32.97-5.12 46.19-34.03 48.91-50.51c3.46-20.99-6.13-35.42-6.64-36.21c-.38-.58-94.46 71.63-94.46 71.63z" fill="#dc5819"/>
      <path d="M20.81 21.51C1.06 42.3-2.29 72.67 12.56 96.14c6.91 10.92 11.14 13.14 11.14 13.14S56.01 130 92.32 98.59c31.1-26.9 24.51-61.93 24.51-61.93s-3.88-8.48-12.04-16.53C86.68 2.25 46.2-5.23 20.81 21.51z" fill="#ef6c32"/>
      <path d="M99.97 16.04c-.29.02-29.18 2.1-59.74 43.18c-19.3 25.94-18.35 44.25-17.6 49.27c0 0-1.47-1.21-2.51-2.33c-1.04-1.11-1.85-2.1-1.85-2.1c-.08-8.79 2.55-25.45 18.76-47.23C61.7 23.64 85.29 14.99 95.18 12.75c0 0 1.21.71 2.38 1.44c.86.54 2.41 1.85 2.41 1.85z" fill="#2d3130"/>
      <path d="M15.57 27.78c3.21 5.27 10.96 16.66 24.38 28.55C56.84 71.31 74.4 83.49 92.12 92.52c8.37 4.27 14.8 6.77 19.35 8.24c0 0-.66 1.01-1.28 1.84c-.62.83-1.3 1.53-1.3 1.53c-4.63-1.57-10.81-4.07-18.6-8.05c-18.02-9.19-35.86-21.56-53-36.76c-12.7-11.26-20.4-21.92-24.18-27.89c0 0 .53-1.05 1.23-1.98s1.23-1.67 1.23-1.67z" fill="#2d3130"/>
      <path d="M53.18 4.77c-1.43 1.63-3.47 4.28-5.85 8.29c-2.18 3.66-3.3 7.3-4.6 11.52c-2.13 6.92-4.54 14.76-12.43 24.78C19.34 63.28 8.57 67.93 3.55 69.42c0 0-.14-1.3-.19-2.21c-.05-.91-.03-1.94-.03-1.94c4.77-1.63 14.21-6.19 23.82-18.38c7.43-9.44 9.72-16.9 11.75-23.48c1.32-4.28 2.56-8.32 4.99-12.39c1.15-1.93 2.23-3.58 3.22-4.96c0 0 1.11-.37 2.63-.71c1.18-.28 3.44-.58 3.44-.58z" fill="#2d3130"/>
      <path d="M68.72 124.01c-3.35-3.03-10.27-9.95-15.32-19.58c-5.59-10.65-8.21-26.67-.75-36.68c8.52-11.42 24.43-12.97 38.89-12.97h.06c18.41.01 32.26 3.86 32.42 3.91c0 0-.11-1.35-.26-2.5c-.13-.99-.27-1.91-.27-1.91c-.7-.18-12.94-3.49-31.89-3.5h-.06c-15.45 0-32.53 1.74-42.1 14.58c-6.16 8.26-8.42 24.12.42 40.93c4.16 7.92 9.4 14.03 13.23 17.88c0 0 1.12.04 2.55.02c1.41-.02 3.08-.18 3.08-.18z" fill="#2d3130"/>
    </g>

    <g filter="url(#boltGlow)" transform="translate(148 94) scale(0.17) translate(-512 -750)">
      <path fill="#035531" stroke="#ffffff" stroke-width="22" stroke-linejoin="round" d="M 537.56 444.67 Q 617.34 444.87 717.35 444.88 C 729.31 449.11 728.91 458.82 725.35 463.36 C 648.18 561.91 556.92 677.88 480.98 775.23 C 477.36 779.87 469.98 780.84 467.12 774.79 C 465.99 772.40 465.89 768.32 466.31 765.40 Q 478.98 656.06 487.15 584.19 Q 487.33 580.40 306.71 580.00 Q 293.45 575.68 294.03 569.55 Q 324.33 529.26 444.34 376.83 Q 540.12 255.37 557.82 249.16 Q 556.28 276.65 544.53 380.90 Q 541.13 410.01 537.56 444.67 Z"/>
    </g>

    <text x="145" y="175" font-family="Arial, sans-serif" font-size="58" font-weight="900" text-anchor="middle" fill="#FFFFFF" filter="url(#textShadow)">NBA</text>
  </g>
</svg>