<svg width="250" height="240" viewBox="0 -30 250 250" xmlns="http://www.w3.org/2000/svg">
  <defs>
    <filter id="ballGlow" x="-50%" y="-50%" width="200%" height="200%">
      <feDropShadow dx="0" dy="0" stdDeviation="10" flood-color="#ffffff" flood-opacity="0.5">
        <animate attributeName="stdDeviation" values="8;20;8" dur="1.5s" repeatCount="indefinite"/>
      </feDropShadow>
    </filter>
    <filter id="boltGlow" x="-80%" y="-80%" width="260%" height="260%">
      <feDropShadow dx="0" dy="0" stdDeviation="14" flood-color="#00ff9c" flood-opacity="1">
        <animate attributeName="stdDeviation" values="5;25;5" dur="1.5s" repeatCount="indefinite"/>
      </feDropShadow>
    </filter>
    <filter id="textShadow" x="-20%" y="-20%" width="140%" height="140%">
      <feDropShadow dx="0" dy="2" stdDeviation="3" flood-color="#000000" flood-opacity="0.8"/>
    </filter>
  </defs>

  <!-- Shifted everything to (0,-30) so ball top fits -->
  <g transform="translate(-20,0)">
    <!-- Background rectangle -->
    <rect x="20" y="24" width="250" height="200" rx="18" fill="#013369"/>
    
    <!-- Bottom colored stripes -->
    <rect x="20" y="190" width="250" height="14" rx="3" fill="#D50A0A"/>
    <rect x="20" y="200" width="250" height="14" rx="3" fill="#A5ACAF"/>
    
    <!-- Glowing football -->
    <g filter="url(#ballGlow)" transform="translate(150 80) scale(2.1) translate(-32 -50)">
      <g fill="#89664c">
        <path d="M2.8 40.3C.7 52 3.2 57 5.1 58.9s7 4.4 18.6 2.3c-4.3-2.3-8.3-5.3-12-8.9c-3.6-3.6-6.6-7.7-8.9-12"/>
        <path d="M61.1 23.8c2.1-11.6.3-17.4-1.6-19.3c-1.9-1.9-7.7-3.6-19.3-1.6c4.3 2.3 8.3 5.3 12 8.9c3.6 3.7 6.6 7.7 8.9 12"/>
        <path d="M30.8 5.4c-5.6 2-11.2 5.1-15.9 9.7c-4.6 4.7-7.7 10.3-9.7 15.9c1.9 6.1 5.6 12 10.7 17.1c5.1 5.1 11 8.8 17.1 10.7c5.6-2 11.2-5.1 15.9-9.7c4.7-4.7 7.7-10.2 9.7-15.9c-1.9-6.1-5.6-12-10.7-17.1c-5-5.2-11-8.8-17.1-10.7"/>
      </g>
      <g fill="#ffffff">
        <path d="M5.2 31c-1.1 3.1-1.9 6.3-2.5 9.4c2.3 4.3 5.3 8.3 8.9 12c3.6 3.6 7.7 6.6 12 8.9c3-.5 6.2-1.3 9.4-2.5c-6.1-1.9-12.1-5.6-17.1-10.7C10.8 43 7.1 37.1 5.2 31"/>
        <path d="M52.2 11.8c-3.6-3.6-7.7-6.6-12-8.9c-3 .5-6.2 1.3-9.4 2.5C36.9 7.3 42.9 10.9 48 16s8.8 11 10.7 17.1c1.1-3.1 1.9-6.3 2.5-9.4c-2.4-4.2-5.4-8.2-9-11.9"/>
        <path d="M37.8 19.8l6.3 6.3c1 1 2.6-.6 1.6-1.6l-6.3-6.3c-1-1-2.6.6-1.6 1.6"/>
        <path d="M33.1 24.6l6.3 6.3c1 1 2.6-.6 1.6-1.6L34.7 23c-1.1-1-2.6.6-1.6 1.6"/>
        <path d="M28.3 29.3l6.3 6.3c1 1 2.6-.6 1.6-1.6l-6.3-6.3c-1-1-2.6.6-1.6 1.6"/>
        <path d="M23.6 34.1l6.3 6.3c1 1 2.6-.6 1.6-1.6l-6.3-6.3c-1.1-1-2.7.6-1.6 1.6"/>
        <path d="M18.8 38.8l6.3 6.3c1 1 2.6-.6 1.6-1.6l-6.3-6.3c-1-1-2.6.6-1.6 1.6"/>
        <path d="M21.4 44.2l23.4-23.4c1-1-.6-2.6-1.6-1.6L19.8 42.6c-1 1.1.5 2.7 1.6 1.6"/>
      </g>
    </g>
    
    <!-- Glowing bolt -->
    <g filter="url(#boltGlow)" transform="translate(148 94) scale(0.15) translate(-515 -830)">
      <path fill="#035531" stroke="#ffffff" stroke-width="22" stroke-linejoin="round" d="M 537.56 444.67 Q 617.34 444.87 717.35 444.88 C 729.31 449.11 728.91 458.82 725.35 463.36 C 648.18 561.91 556.92 677.88 480.98 775.23 C 477.36 779.87 469.98 780.84 467.12 774.79 C 465.99 772.40 465.89 768.32 466.31 765.40 Q 478.98 656.06 487.15 584.19 Q 487.33 580.40 306.71 580.00 Q 293.45 575.68 294.03 569.55 Q 324.33 529.26 444.34 376.83 Q 540.12 255.37 557.82 249.16 Q 556.28 276.65 544.53 380.90 Q 541.13 410.01 537.56 444.67 Z"/>
    </g>

    <!-- Text -->
    <text x="145" y="175" font-family="Arial, sans-serif" font-size="58" font-weight="900" text-anchor="middle" fill="#FFFFFF" filter="url(#textShadow)">NFL</text>
  </g>
</svg>