<?xml version="1.0" encoding="UTF-8" standalone="no"?>
<!DOCTYPE svg PUBLIC "-//W3C//DTD SVG 1.1//EN" "http://www.w3.org/Graphics/SVG/1.1/DTD/svg11.dtd">
<svg xmlns="http://www.w3.org/2000/svg" version="1.1" viewBox="0.00 0.00 1024.00 1024.00">
<g stroke-width="2.00" fill="none" stroke-linecap="butt">
<path stroke="#81aa98" vector-effect="non-scaling-stroke" d="
  M 539.10 441.93
  A 0.46 0.46 0.0 0 1 538.68 441.42
  Q 545.10 384.49 552.53 320.25
  Q 556.50 285.96 561.11 246.50
  C 561.51 243.08 559.69 238.23 555.78 237.12
  Q 550.40 235.60 546.98 239.73
  Q 542.10 245.60 508.16 288.41
  Q 358.76 476.84 331.68 511.16
  Q 313.78 533.85 298.49 552.73
  Q 293.28 559.17 286.95 567.72
  C 284.03 571.66 283.95 577.83 288.82 580.29
  Q 291.72 581.75 295.25 581.76
  Q 372.69 581.95 479.03 581.95
  C 480.57 581.95 483.59 582.19 485.88 582.08
  A 0.61 0.61 0.0 0 1 486.51 582.76
  C 481.32 629.16 476.74 664.45 470.72 715.58
  C 468.65 733.15 466.83 751.39 464.58 769.04
  C 464.28 771.45 462.61 781.29 464.77 783.99
  C 468.23 788.33 473.49 789.63 477.61 785.26
  Q 481.27 781.37 482.30 780.04
  C 502.45 753.91 527.86 722.62 547.68 697.45
  Q 583.57 651.87 588.34 645.84
  Q 590.70 642.84 592.07 641.11
  Q 642.59 577.35 649.55 568.57
  C 654.05 562.90 660.08 555.77 665.18 549.06
  C 677.61 532.71 691.23 516.07 702.90 501.15
  Q 703.97 499.78 704.75 498.78
  Q 711.55 490.06 721.88 477.16
  Q 734.38 461.55 738.24 456.48
  Q 739.48 454.85 739.84 452.55
  C 741.08 444.57 735.86 442.40 729.04 442.41
  Q 661.11 442.52 544.00 442.27
  Q 543.04 442.27 539.10 441.93"
/>
<path stroke="#81aa98" vector-effect="non-scaling-stroke" d="
  M 523.55 654.66
  A 0.25 0.24 -23.0 0 0 523.98 654.83
  Q 525.51 653.10 528.09 649.85
  Q 635.65 514.35 638.86 510.31
  Q 646.98 500.08 656.19 487.72
  A 0.46 0.46 0.0 0 0 655.83 486.98
  L 501.02 486.91
  A 2.25 2.00 48.4 0 1 500.52 486.85
  Q 491.55 484.75 490.26 476.24
  C 489.91 473.98 490.50 470.74 490.68 468.41
  Q 490.98 464.49 491.21 462.56
  Q 497.95 407.05 502.25 368.92
  A 0.41 0.41 0.0 0 0 501.52 368.62
  L 368.78 535.99
  A 0.56 0.56 0.0 0 0 369.22 536.90
  Q 398.21 536.94 519.94 537.18
  C 525.63 537.19 529.43 537.65 532.65 542.08
  Q 535.58 546.10 534.94 551.97
  Q 528.55 610.31 525.11 637.55
  Q 523.91 647.08 523.55 654.66"
/>
</g>
<path fill="#035531" d="
  M 1024.00 0.00
  L 1024.00 1024.00
  L 0.00 1024.00
  L 0.00 0.00
  L 1024.00 0.00
  Z
  M 539.10 441.93
  A 0.46 0.46 0.0 0 1 538.68 441.42
  Q 545.10 384.49 552.53 320.25
  Q 556.50 285.96 561.11 246.50
  C 561.51 243.08 559.69 238.23 555.78 237.12
  Q 550.40 235.60 546.98 239.73
  Q 542.10 245.60 508.16 288.41
  Q 358.76 476.84 331.68 511.16
  Q 313.78 533.85 298.49 552.73
  Q 293.28 559.17 286.95 567.72
  C 284.03 571.66 283.95 577.83 288.82 580.29
  Q 291.72 581.75 295.25 581.76
  Q 372.69 581.95 479.03 581.95
  C 480.57 581.95 483.59 582.19 485.88 582.08
  A 0.61 0.61 0.0 0 1 486.51 582.76
  C 481.32 629.16 476.74 664.45 470.72 715.58
  C 468.65 733.15 466.83 751.39 464.58 769.04
  C 464.28 771.45 462.61 781.29 464.77 783.99
  C 468.23 788.33 473.49 789.63 477.61 785.26
  Q 481.27 781.37 482.30 780.04
  C 502.45 753.91 527.86 722.62 547.68 697.45
  Q 583.57 651.87 588.34 645.84
  Q 590.70 642.84 592.07 641.11
  Q 642.59 577.35 649.55 568.57
  C 654.05 562.90 660.08 555.77 665.18 549.06
  C 677.61 532.71 691.23 516.07 702.90 501.15
  Q 703.97 499.78 704.75 498.78
  Q 711.55 490.06 721.88 477.16
  Q 734.38 461.55 738.24 456.48
  Q 739.48 454.85 739.84 452.55
  C 741.08 444.57 735.86 442.40 729.04 442.41
  Q 661.11 442.52 544.00 442.27
  Q 543.04 442.27 539.10 441.93
  Z"
/>
<path fill="#ffffff" d="
  M 539.10 441.93
  Q 543.04 442.27 544.00 442.27
  Q 661.11 442.52 729.04 442.41
  C 735.86 442.40 741.08 444.57 739.84 452.55
  Q 739.48 454.85 738.24 456.48
  Q 734.38 461.55 721.88 477.16
  Q 711.55 490.06 704.75 498.78
  Q 703.97 499.78 702.90 501.15
  C 691.23 516.07 677.61 532.71 665.18 549.06
  C 660.08 555.77 654.05 562.90 649.55 568.57
  Q 642.59 577.35 592.07 641.11
  Q 590.70 642.84 588.34 645.84
  Q 583.57 651.87 547.68 697.45
  C 527.86 722.62 502.45 753.91 482.30 780.04
  Q 481.27 781.37 477.61 785.26
  C 473.49 789.63 468.23 788.33 464.77 783.99
  C 462.61 781.29 464.28 771.45 464.58 769.04
  C 466.83 751.39 468.65 733.15 470.72 715.58
  C 476.74 664.45 481.32 629.16 486.51 582.76
  A 0.61 0.61 0.0 0 0 485.88 582.08
  C 483.59 582.19 480.57 581.95 479.03 581.95
  Q 372.69 581.95 295.25 581.76
  Q 291.72 581.75 288.82 580.29
  C 283.95 577.83 284.03 571.66 286.95 567.72
  Q 293.28 559.17 298.49 552.73
  Q 313.78 533.85 331.68 511.16
  Q 358.76 476.84 508.16 288.41
  Q 542.10 245.60 546.98 239.73
  Q 550.40 235.60 555.78 237.12
  C 559.69 238.23 561.51 243.08 561.11 246.50
  Q 556.50 285.96 552.53 320.25
  Q 545.10 384.49 538.68 441.42
  A 0.46 0.46 0.0 0 0 539.10 441.93
  Z
  M 523.55 654.66
  A 0.25 0.24 -23.0 0 0 523.98 654.83
  Q 525.51 653.10 528.09 649.85
  Q 635.65 514.35 638.86 510.31
  Q 646.98 500.08 656.19 487.72
  A 0.46 0.46 0.0 0 0 655.83 486.98
  L 501.02 486.91
  A 2.25 2.00 48.4 0 1 500.52 486.85
  Q 491.55 484.75 490.26 476.24
  C 489.91 473.98 490.50 470.74 490.68 468.41
  Q 490.98 464.49 491.21 462.56
  Q 497.95 407.05 502.25 368.92
  A 0.41 0.41 0.0 0 0 501.52 368.62
  L 368.78 535.99
  A 0.56 0.56 0.0 0 0 369.22 536.90
  Q 398.21 536.94 519.94 537.18
  C 525.63 537.19 529.43 537.65 532.65 542.08
  Q 535.58 546.10 534.94 551.97
  Q 528.55 610.31 525.11 637.55
  Q 523.91 647.08 523.55 654.66
  Z"
/>
<path fill="#035531" d="
  M 523.55 654.66
  Q 523.91 647.08 525.11 637.55
  Q 528.55 610.31 534.94 551.97
  Q 535.58 546.10 532.65 542.08
  C 529.43 537.65 525.63 537.19 519.94 537.18
  Q 398.21 536.94 369.22 536.90
  A 0.56 0.56 0.0 0 1 368.78 535.99
  L 501.52 368.62
  A 0.41 0.41 0.0 0 1 502.25 368.92
  Q 497.95 407.05 491.21 462.56
  Q 490.98 464.49 490.68 468.41
  C 490.50 470.74 489.91 473.98 490.26 476.24
  Q 491.55 484.75 500.52 486.85
  A 2.25 2.00 48.4 0 0 501.02 486.91
  L 655.83 486.98
  A 0.46 0.46 0.0 0 1 656.19 487.72
  Q 646.98 500.08 638.86 510.31
  Q 635.65 514.35 528.09 649.85
  Q 525.51 653.10 523.98 654.83
  A 0.25 0.24 -23.0 0 1 523.55 654.66
  Z"
/>
</svg>
