<?xml version="1.0" encoding="UTF-8" standalone="no"?>
<!DOCTYPE svg PUBLIC "-//W3C//DTD SVG 1.1//EN" "http://www.w3.org/Graphics/SVG/1.1/DTD/svg11.dtd">
<svg xmlns="http://www.w3.org/2000/svg" version="1.1" viewBox="0.00 0.00 1664.00 640.00">
<g stroke-width="2.00" fill="none" stroke-linecap="butt">
<path stroke="#83a796" vector-effect="non-scaling-stroke" d="
  M 252.81 350.89
  C 250.77 370.00 248.06 388.86 245.63 408.94
  Q 241.16 445.90 235.93 486.24
  C 235.39 490.36 235.92 494.43 239.95 495.89
  C 243.14 497.05 246.23 495.06 248.10 492.61
  Q 270.09 463.77 295.37 429.60
  C 301.68 421.08 308.39 412.55 315.57 402.83
  C 335.44 375.91 365.98 335.67 385.09 310.01
  C 388.43 305.51 392.72 299.25 396.90 294.08
  C 402.94 286.59 410.44 275.99 416.55 268.07
  Q 420.31 263.18 420.75 261.03
  Q 421.83 255.86 418.64 253.16
  Q 417.18 251.92 412.06 251.95
  Q 352.63 252.22 291.76 251.90
  A 1.03 1.02 3.5 0 1 290.75 250.76
  Q 306.42 111.58 306.47 111.00
  C 306.83 106.43 304.86 102.02 299.32 103.61
  Q 296.90 104.30 295.92 105.66
  Q 276.64 132.47 247.84 171.80
  Q 245.76 174.64 244.53 176.54
  C 241.91 180.58 238.60 184.31 235.81 188.14
  Q 208.09 226.14 159.09 293.10
  Q 138.63 321.06 132.53 329.54
  C 128.92 334.55 119.49 342.99 127.69 349.15
  Q 129.54 350.54 134.73 350.52
  Q 173.55 350.34 252.37 350.40
  A 0.44 0.44 0.0 0 1 252.81 350.89"
/>
<path stroke="#83a796" vector-effect="non-scaling-stroke" d="
  M 594.32 287.45
  L 594.32 244.36
  A 0.58 0.58 0.0 0 0 593.74 243.78
  L 562.97 243.78
  A 0.62 0.62 0.0 0 0 562.35 244.40
  L 562.35 379.59
  A 0.51 0.50 90.0 0 0 562.85 380.10
  L 593.98 380.10
  A 0.35 0.35 0.0 0 0 594.33 379.76
  Q 594.42 340.26 594.37 333.71
  C 594.32 327.18 594.21 323.07 596.05 318.10
  Q 600.12 307.06 611.97 306.93
  C 622.55 306.81 627.63 314.44 627.71 324.25
  Q 627.85 341.28 627.67 379.32
  A 0.77 0.77 0.0 0 0 628.44 380.10
  L 659.25 380.10
  A 0.59 0.58 -0.0 0 0 659.84 379.52
  Q 660.01 340.44 659.67 319.07
  C 659.27 294.26 644.83 276.39 618.85 278.03
  Q 605.15 278.89 594.70 287.63
  A 0.23 0.23 0.0 0 1 594.32 287.45"
/>
<path stroke="#83a796" vector-effect="non-scaling-stroke" d="
  M 1431.44 244.33
  L 1431.44 379.33
  A 0.79 0.78 90.0 0 0 1432.22 380.12
  L 1464.11 380.12
  A 0.65 0.65 0.0 0 0 1464.76 379.46
  Q 1464.57 356.26 1464.71 329.51
  C 1464.74 325.46 1465.37 321.40 1466.77 317.78
  C 1470.44 308.21 1480.74 305.16 1490.20 307.88
  C 1497.95 310.10 1500.56 318.53 1500.83 325.86
  Q 1500.94 328.83 1500.88 379.42
  A 0.70 0.69 90.0 0 0 1501.57 380.12
  L 1533.48 380.12
  A 0.63 0.63 0.0 0 0 1534.11 379.49
  Q 1534.24 339.06 1534.12 321.52
  C 1533.97 300.50 1524.77 282.43 1502.34 278.61
  Q 1486.42 275.89 1471.62 283.30
  Q 1468.16 285.03 1465.95 287.51
  A 0.73 0.73 0.0 0 1 1464.67 287.02
  L 1464.67 244.38
  A 0.57 0.57 0.0 0 0 1464.10 243.81
  L 1431.96 243.81
  A 0.52 0.52 0.0 0 0 1431.44 244.33"
/>
<path stroke="#83a796" vector-effect="non-scaling-stroke" d="
  M 456.89 340.40
  A 0.36 0.36 0.0 0 0 456.34 340.54
  L 444.72 365.44
  A 1.24 1.24 0.0 0 0 445.04 366.91
  Q 447.62 369.08 452.31 371.48
  Q 475.69 383.41 501.87 381.80
  C 512.50 381.14 520.19 379.72 529.28 374.86
  Q 547.93 364.86 549.77 344.08
  Q 551.52 324.40 537.64 313.09
  Q 532.21 308.66 521.92 305.06
  Q 512.51 301.76 504.88 300.13
  Q 499.91 299.07 495.94 297.89
  C 489.77 296.07 479.75 293.30 481.60 284.95
  Q 483.05 278.39 489.45 276.64
  C 504.03 272.65 520.50 276.92 533.41 284.67
  A 1.04 1.04 0.0 0 0 534.91 284.16
  L 545.02 258.91
  A 0.63 0.63 0.0 0 0 544.78 258.15
  Q 539.29 254.54 533.35 252.42
  C 516.11 246.28 497.60 244.89 479.86 249.76
  C 456.99 256.04 444.45 273.81 449.03 297.73
  C 451.72 311.77 464.26 320.15 477.22 324.05
  Q 486.93 326.97 498.24 329.77
  C 505.05 331.45 518.00 334.93 516.62 344.58
  C 514.90 356.54 490.54 353.99 483.19 352.02
  C 473.89 349.53 463.98 345.93 456.89 340.40"
/>
<path stroke="#83a796" vector-effect="non-scaling-stroke" d="
  M 1052.06 366.81
  A 0.31 0.31 0.0 0 0 1052.33 366.65
  L 1083.37 310.02
  A 0.31 0.31 0.0 0 1 1083.95 310.17
  L 1083.95 379.79
  A 0.31 0.31 0.0 0 0 1084.26 380.10
  L 1115.81 380.10
  A 0.31 0.31 0.0 0 0 1116.12 379.79
  L 1116.12 250.36
  A 0.31 0.31 0.0 0 0 1115.81 250.05
  L 1085.97 250.05
  A 0.31 0.31 0.0 0 0 1085.70 250.21
  L 1044.17 324.22
  A 0.31 0.31 0.0 0 1 1043.63 324.22
  L 1000.87 250.16
  A 0.31 0.31 0.0 0 0 1000.60 250.01
  L 971.55 250.01
  A 0.31 0.31 0.0 0 0 971.24 250.32
  L 971.24 379.82
  A 0.31 0.31 0.0 0 0 971.55 380.13
  L 1002.86 380.13
  A 0.31 0.31 0.0 0 0 1003.17 379.82
  L 1003.17 312.02
  A 0.31 0.31 0.0 0 1 1003.75 311.87
  L 1034.16 366.65
  A 0.31 0.31 0.0 0 0 1034.43 366.81
  L 1052.06 366.81"
/>
<path stroke="#83a796" vector-effect="non-scaling-stroke" d="
  M 1304.65 282.32
  L 1283.51 282.32
  A 0.68 0.68 0.0 0 1 1282.83 281.64
  L 1282.83 255.95
  A 0.29 0.28 -0.0 0 0 1282.54 255.67
  L 1250.88 255.67
  A 0.39 0.39 0.0 0 0 1250.49 256.06
  L 1250.49 281.61
  A 0.79 0.78 0.0 0 1 1249.70 282.39
  L 1236.65 282.39
  A 0.54 0.54 0.0 0 0 1236.11 282.93
  L 1236.11 307.17
  A 0.56 0.56 0.0 0 0 1236.67 307.73
  L 1249.77 307.73
  A 0.76 0.76 0.0 0 1 1250.53 308.49
  Q 1250.38 327.81 1250.40 345.99
  C 1250.41 355.21 1252.93 364.84 1259.30 371.32
  C 1267.94 380.09 1279.32 382.18 1291.19 381.67
  C 1298.92 381.33 1305.87 379.84 1312.10 376.04
  A 0.58 0.58 0.0 0 0 1312.35 375.36
  L 1304.61 351.69
  A 0.62 0.61 62.4 0 0 1303.66 351.39
  Q 1297.65 355.96 1290.42 354.58
  C 1284.52 353.45 1282.98 348.23 1282.92 343.00
  Q 1282.72 327.23 1282.91 308.08
  A 0.33 0.32 0.0 0 1 1283.24 307.76
  L 1304.69 307.76
  A 0.55 0.55 0.0 0 0 1305.24 307.21
  L 1305.24 282.91
  A 0.59 0.59 0.0 0 0 1304.65 282.32"
/>
<path stroke="#83a796" vector-effect="non-scaling-stroke" d="
  M 735.42 369.56
  L 735.42 379.60
  A 0.53 0.53 0.0 0 0 735.95 380.13
  L 764.14 380.13
  A 0.69 0.69 0.0 0 0 764.83 379.43
  Q 764.55 357.69 764.65 322.76
  C 764.69 308.50 760.33 293.37 747.91 285.52
  C 728.51 273.26 693.99 276.16 675.92 290.08
  A 0.82 0.80 -33.1 0 0 675.70 291.09
  L 686.20 311.09
  A 0.51 0.51 0.0 0 0 686.93 311.28
  Q 699.90 302.99 714.70 303.23
  C 724.16 303.38 732.50 309.08 732.25 319.20
  A 0.47 0.47 0.0 0 1 731.75 319.65
  C 719.17 318.93 705.92 318.85 693.25 322.73
  Q 678.54 327.23 674.05 339.85
  C 671.48 347.05 671.63 354.67 674.09 361.93
  C 679.95 379.23 701.27 384.15 716.98 380.75
  Q 728.17 378.33 734.52 369.27
  A 0.50 0.49 62.6 0 1 735.42 369.56"
/>
<path stroke="#83a796" vector-effect="non-scaling-stroke" d="
  M 883.84 338.58
  L 954.07 338.58
  A 1.09 1.08 3.3 0 0 955.15 337.62
  C 957.24 319.81 952.40 301.07 938.33 289.30
  C 923.65 277.03 901.87 275.31 883.97 281.13
  C 870.73 285.43 859.53 296.22 854.44 309.10
  C 846.53 329.12 849.84 354.09 867.24 368.42
  Q 876.41 375.97 885.75 378.77
  C 903.54 384.11 926.77 382.94 941.46 371.23
  Q 946.14 367.51 948.37 364.04
  A 1.06 1.06 0.0 0 0 948.21 362.71
  L 931.16 346.55
  A 0.89 0.87 -42.6 0 0 929.99 346.51
  C 926.06 349.78 921.49 353.12 916.64 354.35
  Q 906.27 356.98 897.06 353.64
  C 890.50 351.25 885.11 345.69 883.54 338.95
  A 0.31 0.31 0.0 0 1 883.84 338.58"
/>
<path stroke="#83a796" vector-effect="non-scaling-stroke" d="
  M 1418.75 304.31
  C 1412.82 292.21 1403.04 284.03 1389.71 280.25
  Q 1369.69 274.57 1350.20 281.45
  Q 1340.49 284.87 1334.49 289.90
  C 1322.55 299.91 1315.94 312.71 1315.33 328.86
  C 1314.51 351.01 1327.69 369.12 1347.91 377.43
  C 1365.42 384.63 1390.10 383.19 1405.43 371.40
  Q 1410.87 367.21 1413.29 363.92
  Q 1416.20 359.97 1418.83 354.52
  A 1.23 1.22 -64.7 0 0 1418.25 352.88
  L 1393.34 341.25
  A 0.72 0.71 -62.6 0 0 1392.42 341.55
  Q 1384.42 355.50 1368.94 353.91
  C 1349.70 351.93 1344.14 330.36 1352.29 315.48
  Q 1355.61 309.44 1362.88 306.84
  C 1372.65 303.34 1383.62 305.30 1389.80 313.95
  Q 1392.40 317.58 1392.62 318.13
  A 0.47 0.47 0.0 0 0 1393.27 318.37
  L 1418.48 305.13
  A 0.62 0.61 63.6 0 0 1418.75 304.31"
/>
<path stroke="#83a796" vector-effect="non-scaling-stroke" d="
  M 812.34 291.18
  L 812.34 280.14
  A 0.52 0.51 90.0 0 0 811.83 279.62
  L 782.31 279.62
  A 0.70 0.69 -90.0 0 0 781.62 280.32
  L 781.62 379.70
  A 0.41 0.41 0.0 0 0 782.03 380.11
  L 813.11 380.11
  A 1.05 1.04 -0.3 0 0 814.16 379.06
  Q 814.12 343.86 814.38 330.76
  C 814.58 320.94 819.35 310.92 829.28 308.93
  Q 835.84 307.62 844.02 308.37
  A 0.79 0.78 2.7 0 0 844.88 307.59
  L 844.88 278.49
  A 0.40 0.40 0.0 0 0 844.49 278.09
  C 832.12 277.83 820.39 281.09 812.81 291.34
  A 0.26 0.26 0.0 0 1 812.34 291.18"
/>
<path stroke="#83a796" vector-effect="non-scaling-stroke" d="
  M 1195.60 369.43
  L 1195.60 379.62
  A 0.51 0.51 0.0 0 0 1196.11 380.13
  L 1225.07 380.13
  A 0.43 0.43 0.0 0 0 1225.50 379.69
  Q 1225.27 361.93 1225.38 325.71
  C 1225.40 319.72 1224.85 314.49 1223.75 308.96
  C 1218.63 283.25 1193.79 276.52 1170.94 278.17
  C 1159.14 279.03 1145.10 282.69 1135.76 290.13
  A 0.81 0.81 0.0 0 0 1135.55 291.14
  L 1145.91 310.87
  A 0.86 0.85 59.5 0 0 1147.13 311.19
  C 1156.66 305.08 1171.74 300.57 1182.76 304.86
  Q 1192.17 308.53 1192.40 319.27
  A 0.23 0.23 0.0 0 1 1192.16 319.50
  Q 1180.23 319.15 1169.00 319.73
  C 1149.73 320.74 1130.15 329.88 1131.64 352.21
  Q 1132.99 372.38 1152.03 379.20
  C 1165.83 384.13 1186.34 383.12 1194.76 369.20
  A 0.45 0.45 0.0 0 1 1195.60 369.43"
/>
<path stroke="#83a796" vector-effect="non-scaling-stroke" d="
  M 266.40 199.88
  A 0.29 0.29 0.0 0 0 265.87 199.67
  L 178.66 318.12
  A 0.58 0.57 18.0 0 0 179.13 319.03
  Q 263.08 318.86 276.76 318.93
  Q 282.31 318.96 284.96 323.56
  Q 286.64 326.48 286.30 329.25
  Q 281.87 365.23 277.67 401.00
  Q 277.61 401.54 277.81 401.96
  A 0.29 0.29 0.0 0 0 278.30 402.01
  L 366.09 284.44
  A 0.53 0.52 -71.7 0 0 365.67 283.60
  Q 319.82 283.55 269.80 283.58
  Q 264.57 283.58 262.86 282.78
  C 258.75 280.86 256.72 275.94 257.33 271.81
  Q 258.98 260.51 259.65 254.29
  C 261.60 236.29 263.79 220.35 266.40 199.88"
/>
<path stroke="#83a796" vector-effect="non-scaling-stroke" d="
  M 731.72 338.23
  Q 729.83 338.52 715.73 338.86
  C 709.01 339.03 702.72 341.76 702.90 349.52
  C 703.02 354.44 706.09 358.16 711.03 359.13
  C 724.83 361.86 734.02 352.50 732.37 338.72
  A 0.57 0.56 -7.9 0 0 731.72 338.23"
/>
<path stroke="#83a796" vector-effect="non-scaling-stroke" d="
  M 903.76 319.40
  Q 915.86 319.37 923.27 319.42
  A 0.65 0.65 0.0 0 0 923.91 318.62
  C 921.60 308.71 914.13 302.35 903.73 302.37
  C 893.32 302.39 885.87 308.77 883.61 318.70
  A 0.65 0.65 0.0 0 0 884.25 319.50
  Q 891.66 319.42 903.76 319.40"
/>
<path stroke="#83a796" vector-effect="non-scaling-stroke" d="
  M 1191.99 338.37
  Q 1190.07 338.62 1175.75 338.69
  C 1168.92 338.73 1162.49 341.38 1162.52 349.26
  C 1162.54 354.26 1165.59 358.09 1170.58 359.18
  C 1184.53 362.22 1194.04 352.90 1192.64 338.88
  A 0.58 0.57 -6.8 0 0 1191.99 338.37"
/>
</g>
<path fill="#074e2c" d="
  M 1664.00 0.00
  L 1664.00 640.00
  L 0.00 640.00
  L 0.00 0.00
  L 1664.00 0.00
  Z
  M 252.81 350.89
  C 250.77 370.00 248.06 388.86 245.63 408.94
  Q 241.16 445.90 235.93 486.24
  C 235.39 490.36 235.92 494.43 239.95 495.89
  C 243.14 497.05 246.23 495.06 248.10 492.61
  Q 270.09 463.77 295.37 429.60
  C 301.68 421.08 308.39 412.55 315.57 402.83
  C 335.44 375.91 365.98 335.67 385.09 310.01
  C 388.43 305.51 392.72 299.25 396.90 294.08
  C 402.94 286.59 410.44 275.99 416.55 268.07
  Q 420.31 263.18 420.75 261.03
  Q 421.83 255.86 418.64 253.16
  Q 417.18 251.92 412.06 251.95
  Q 352.63 252.22 291.76 251.90
  A 1.03 1.02 3.5 0 1 290.75 250.76
  Q 306.42 111.58 306.47 111.00
  C 306.83 106.43 304.86 102.02 299.32 103.61
  Q 296.90 104.30 295.92 105.66
  Q 276.64 132.47 247.84 171.80
  Q 245.76 174.64 244.53 176.54
  C 241.91 180.58 238.60 184.31 235.81 188.14
  Q 208.09 226.14 159.09 293.10
  Q 138.63 321.06 132.53 329.54
  C 128.92 334.55 119.49 342.99 127.69 349.15
  Q 129.54 350.54 134.73 350.52
  Q 173.55 350.34 252.37 350.40
  A 0.44 0.44 0.0 0 1 252.81 350.89
  Z
  M 594.32 287.45
  L 594.32 244.36
  A 0.58 0.58 0.0 0 0 593.74 243.78
  L 562.97 243.78
  A 0.62 0.62 0.0 0 0 562.35 244.40
  L 562.35 379.59
  A 0.51 0.50 90.0 0 0 562.85 380.10
  L 593.98 380.10
  A 0.35 0.35 0.0 0 0 594.33 379.76
  Q 594.42 340.26 594.37 333.71
  C 594.32 327.18 594.21 323.07 596.05 318.10
  Q 600.12 307.06 611.97 306.93
  C 622.55 306.81 627.63 314.44 627.71 324.25
  Q 627.85 341.28 627.67 379.32
  A 0.77 0.77 0.0 0 0 628.44 380.10
  L 659.25 380.10
  A 0.59 0.58 -0.0 0 0 659.84 379.52
  Q 660.01 340.44 659.67 319.07
  C 659.27 294.26 644.83 276.39 618.85 278.03
  Q 605.15 278.89 594.70 287.63
  A 0.23 0.23 0.0 0 1 594.32 287.45
  Z
  M 1431.44 244.33
  L 1431.44 379.33
  A 0.79 0.78 90.0 0 0 1432.22 380.12
  L 1464.11 380.12
  A 0.65 0.65 0.0 0 0 1464.76 379.46
  Q 1464.57 356.26 1464.71 329.51
  C 1464.74 325.46 1465.37 321.40 1466.77 317.78
  C 1470.44 308.21 1480.74 305.16 1490.20 307.88
  C 1497.95 310.10 1500.56 318.53 1500.83 325.86
  Q 1500.94 328.83 1500.88 379.42
  A 0.70 0.69 90.0 0 0 1501.57 380.12
  L 1533.48 380.12
  A 0.63 0.63 0.0 0 0 1534.11 379.49
  Q 1534.24 339.06 1534.12 321.52
  C 1533.97 300.50 1524.77 282.43 1502.34 278.61
  Q 1486.42 275.89 1471.62 283.30
  Q 1468.16 285.03 1465.95 287.51
  A 0.73 0.73 0.0 0 1 1464.67 287.02
  L 1464.67 244.38
  A 0.57 0.57 0.0 0 0 1464.10 243.81
  L 1431.96 243.81
  A 0.52 0.52 0.0 0 0 1431.44 244.33
  Z
  M 456.89 340.40
  A 0.36 0.36 0.0 0 0 456.34 340.54
  L 444.72 365.44
  A 1.24 1.24 0.0 0 0 445.04 366.91
  Q 447.62 369.08 452.31 371.48
  Q 475.69 383.41 501.87 381.80
  C 512.50 381.14 520.19 379.72 529.28 374.86
  Q 547.93 364.86 549.77 344.08
  Q 551.52 324.40 537.64 313.09
  Q 532.21 308.66 521.92 305.06
  Q 512.51 301.76 504.88 300.13
  Q 499.91 299.07 495.94 297.89
  C 489.77 296.07 479.75 293.30 481.60 284.95
  Q 483.05 278.39 489.45 276.64
  C 504.03 272.65 520.50 276.92 533.41 284.67
  A 1.04 1.04 0.0 0 0 534.91 284.16
  L 545.02 258.91
  A 0.63 0.63 0.0 0 0 544.78 258.15
  Q 539.29 254.54 533.35 252.42
  C 516.11 246.28 497.60 244.89 479.86 249.76
  C 456.99 256.04 444.45 273.81 449.03 297.73
  C 451.72 311.77 464.26 320.15 477.22 324.05
  Q 486.93 326.97 498.24 329.77
  C 505.05 331.45 518.00 334.93 516.62 344.58
  C 514.90 356.54 490.54 353.99 483.19 352.02
  C 473.89 349.53 463.98 345.93 456.89 340.40
  Z
  M 1052.06 366.81
  A 0.31 0.31 0.0 0 0 1052.33 366.65
  L 1083.37 310.02
  A 0.31 0.31 0.0 0 1 1083.95 310.17
  L 1083.95 379.79
  A 0.31 0.31 0.0 0 0 1084.26 380.10
  L 1115.81 380.10
  A 0.31 0.31 0.0 0 0 1116.12 379.79
  L 1116.12 250.36
  A 0.31 0.31 0.0 0 0 1115.81 250.05
  L 1085.97 250.05
  A 0.31 0.31 0.0 0 0 1085.70 250.21
  L 1044.17 324.22
  A 0.31 0.31 0.0 0 1 1043.63 324.22
  L 1000.87 250.16
  A 0.31 0.31 0.0 0 0 1000.60 250.01
  L 971.55 250.01
  A 0.31 0.31 0.0 0 0 971.24 250.32
  L 971.24 379.82
  A 0.31 0.31 0.0 0 0 971.55 380.13
  L 1002.86 380.13
  A 0.31 0.31 0.0 0 0 1003.17 379.82
  L 1003.17 312.02
  A 0.31 0.31 0.0 0 1 1003.75 311.87
  L 1034.16 366.65
  A 0.31 0.31 0.0 0 0 1034.43 366.81
  L 1052.06 366.81
  Z
  M 1304.65 282.32
  L 1283.51 282.32
  A 0.68 0.68 0.0 0 1 1282.83 281.64
  L 1282.83 255.95
  A 0.29 0.28 -0.0 0 0 1282.54 255.67
  L 1250.88 255.67
  A 0.39 0.39 0.0 0 0 1250.49 256.06
  L 1250.49 281.61
  A 0.79 0.78 0.0 0 1 1249.70 282.39
  L 1236.65 282.39
  A 0.54 0.54 0.0 0 0 1236.11 282.93
  L 1236.11 307.17
  A 0.56 0.56 0.0 0 0 1236.67 307.73
  L 1249.77 307.73
  A 0.76 0.76 0.0 0 1 1250.53 308.49
  Q 1250.38 327.81 1250.40 345.99
  C 1250.41 355.21 1252.93 364.84 1259.30 371.32
  C 1267.94 380.09 1279.32 382.18 1291.19 381.67
  C 1298.92 381.33 1305.87 379.84 1312.10 376.04
  A 0.58 0.58 0.0 0 0 1312.35 375.36
  L 1304.61 351.69
  A 0.62 0.61 62.4 0 0 1303.66 351.39
  Q 1297.65 355.96 1290.42 354.58
  C 1284.52 353.45 1282.98 348.23 1282.92 343.00
  Q 1282.72 327.23 1282.91 308.08
  A 0.33 0.32 0.0 0 1 1283.24 307.76
  L 1304.69 307.76
  A 0.55 0.55 0.0 0 0 1305.24 307.21
  L 1305.24 282.91
  A 0.59 0.59 0.0 0 0 1304.65 282.32
  Z
  M 735.42 369.56
  L 735.42 379.60
  A 0.53 0.53 0.0 0 0 735.95 380.13
  L 764.14 380.13
  A 0.69 0.69 0.0 0 0 764.83 379.43
  Q 764.55 357.69 764.65 322.76
  C 764.69 308.50 760.33 293.37 747.91 285.52
  C 728.51 273.26 693.99 276.16 675.92 290.08
  A 0.82 0.80 -33.1 0 0 675.70 291.09
  L 686.20 311.09
  A 0.51 0.51 0.0 0 0 686.93 311.28
  Q 699.90 302.99 714.70 303.23
  C 724.16 303.38 732.50 309.08 732.25 319.20
  A 0.47 0.47 0.0 0 1 731.75 319.65
  C 719.17 318.93 705.92 318.85 693.25 322.73
  Q 678.54 327.23 674.05 339.85
  C 671.48 347.05 671.63 354.67 674.09 361.93
  C 679.95 379.23 701.27 384.15 716.98 380.75
  Q 728.17 378.33 734.52 369.27
  A 0.50 0.49 62.6 0 1 735.42 369.56
  Z
  M 883.84 338.58
  L 954.07 338.58
  A 1.09 1.08 3.3 0 0 955.15 337.62
  C 957.24 319.81 952.40 301.07 938.33 289.30
  C 923.65 277.03 901.87 275.31 883.97 281.13
  C 870.73 285.43 859.53 296.22 854.44 309.10
  C 846.53 329.12 849.84 354.09 867.24 368.42
  Q 876.41 375.97 885.75 378.77
  C 903.54 384.11 926.77 382.94 941.46 371.23
  Q 946.14 367.51 948.37 364.04
  A 1.06 1.06 0.0 0 0 948.21 362.71
  L 931.16 346.55
  A 0.89 0.87 -42.6 0 0 929.99 346.51
  C 926.06 349.78 921.49 353.12 916.64 354.35
  Q 906.27 356.98 897.06 353.64
  C 890.50 351.25 885.11 345.69 883.54 338.95
  A 0.31 0.31 0.0 0 1 883.84 338.58
  Z
  M 1418.75 304.31
  C 1412.82 292.21 1403.04 284.03 1389.71 280.25
  Q 1369.69 274.57 1350.20 281.45
  Q 1340.49 284.87 1334.49 289.90
  C 1322.55 299.91 1315.94 312.71 1315.33 328.86
  C 1314.51 351.01 1327.69 369.12 1347.91 377.43
  C 1365.42 384.63 1390.10 383.19 1405.43 371.40
  Q 1410.87 367.21 1413.29 363.92
  Q 1416.20 359.97 1418.83 354.52
  A 1.23 1.22 -64.7 0 0 1418.25 352.88
  L 1393.34 341.25
  A 0.72 0.71 -62.6 0 0 1392.42 341.55
  Q 1384.42 355.50 1368.94 353.91
  C 1349.70 351.93 1344.14 330.36 1352.29 315.48
  Q 1355.61 309.44 1362.88 306.84
  C 1372.65 303.34 1383.62 305.30 1389.80 313.95
  Q 1392.40 317.58 1392.62 318.13
  A 0.47 0.47 0.0 0 0 1393.27 318.37
  L 1418.48 305.13
  A 0.62 0.61 63.6 0 0 1418.75 304.31
  Z
  M 812.34 291.18
  L 812.34 280.14
  A 0.52 0.51 90.0 0 0 811.83 279.62
  L 782.31 279.62
  A 0.70 0.69 -90.0 0 0 781.62 280.32
  L 781.62 379.70
  A 0.41 0.41 0.0 0 0 782.03 380.11
  L 813.11 380.11
  A 1.05 1.04 -0.3 0 0 814.16 379.06
  Q 814.12 343.86 814.38 330.76
  C 814.58 320.94 819.35 310.92 829.28 308.93
  Q 835.84 307.62 844.02 308.37
  A 0.79 0.78 2.7 0 0 844.88 307.59
  L 844.88 278.49
  A 0.40 0.40 0.0 0 0 844.49 278.09
  C 832.12 277.83 820.39 281.09 812.81 291.34
  A 0.26 0.26 0.0 0 1 812.34 291.18
  Z
  M 1195.60 369.43
  L 1195.60 379.62
  A 0.51 0.51 0.0 0 0 1196.11 380.13
  L 1225.07 380.13
  A 0.43 0.43 0.0 0 0 1225.50 379.69
  Q 1225.27 361.93 1225.38 325.71
  C 1225.40 319.72 1224.85 314.49 1223.75 308.96
  C 1218.63 283.25 1193.79 276.52 1170.94 278.17
  C 1159.14 279.03 1145.10 282.69 1135.76 290.13
  A 0.81 0.81 0.0 0 0 1135.55 291.14
  L 1145.91 310.87
  A 0.86 0.85 59.5 0 0 1147.13 311.19
  C 1156.66 305.08 1171.74 300.57 1182.76 304.86
  Q 1192.17 308.53 1192.40 319.27
  A 0.23 0.23 0.0 0 1 1192.16 319.50
  Q 1180.23 319.15 1169.00 319.73
  C 1149.73 320.74 1130.15 329.88 1131.64 352.21
  Q 1132.99 372.38 1152.03 379.20
  C 1165.83 384.13 1186.34 383.12 1194.76 369.20
  A 0.45 0.45 0.0 0 1 1195.60 369.43
  Z"
/>
<path fill="#ffffff" d="
  M 252.81 350.89
  A 0.44 0.44 0.0 0 0 252.37 350.40
  Q 173.55 350.34 134.73 350.52
  Q 129.54 350.54 127.69 349.15
  C 119.49 342.99 128.92 334.55 132.53 329.54
  Q 138.63 321.06 159.09 293.10
  Q 208.09 226.14 235.81 188.14
  C 238.60 184.31 241.91 180.58 244.53 176.54
  Q 245.76 174.64 247.84 171.80
  Q 276.64 132.47 295.92 105.66
  Q 296.90 104.30 299.32 103.61
  C 304.86 102.02 306.83 106.43 306.47 111.00
  Q 306.42 111.58 290.75 250.76
  A 1.03 1.02 3.5 0 0 291.76 251.90
  Q 352.63 252.22 412.06 251.95
  Q 417.18 251.92 418.64 253.16
  Q 421.83 255.86 420.75 261.03
  Q 420.31 263.18 416.55 268.07
  C 410.44 275.99 402.94 286.59 396.90 294.08
  C 392.72 299.25 388.43 305.51 385.09 310.01
  C 365.98 335.67 335.44 375.91 315.57 402.83
  C 308.39 412.55 301.68 421.08 295.37 429.60
  Q 270.09 463.77 248.10 492.61
  C 246.23 495.06 243.14 497.05 239.95 495.89
  C 235.92 494.43 235.39 490.36 235.93 486.24
  Q 241.16 445.90 245.63 408.94
  C 248.06 388.86 250.77 370.00 252.81 350.89
  Z
  M 266.40 199.88
  A 0.29 0.29 0.0 0 0 265.87 199.67
  L 178.66 318.12
  A 0.58 0.57 18.0 0 0 179.13 319.03
  Q 263.08 318.86 276.76 318.93
  Q 282.31 318.96 284.96 323.56
  Q 286.64 326.48 286.30 329.25
  Q 281.87 365.23 277.67 401.00
  Q 277.61 401.54 277.81 401.96
  A 0.29 0.29 0.0 0 0 278.30 402.01
  L 366.09 284.44
  A 0.53 0.52 -71.7 0 0 365.67 283.60
  Q 319.82 283.55 269.80 283.58
  Q 264.57 283.58 262.86 282.78
  C 258.75 280.86 256.72 275.94 257.33 271.81
  Q 258.98 260.51 259.65 254.29
  C 261.60 236.29 263.79 220.35 266.40 199.88
  Z"
/>
<path fill="#074e2c" d="
  M 266.40 199.88
  C 263.79 220.35 261.60 236.29 259.65 254.29
  Q 258.98 260.51 257.33 271.81
  C 256.72 275.94 258.75 280.86 262.86 282.78
  Q 264.57 283.58 269.80 283.58
  Q 319.82 283.55 365.67 283.60
  A 0.53 0.52 -71.7 0 1 366.09 284.44
  L 278.30 402.01
  A 0.29 0.29 0.0 0 1 277.81 401.96
  Q 277.61 401.54 277.67 401.00
  Q 281.87 365.23 286.30 329.25
  Q 286.64 326.48 284.96 323.56
  Q 282.31 318.96 276.76 318.93
  Q 263.08 318.86 179.13 319.03
  A 0.58 0.57 18.0 0 1 178.66 318.12
  L 265.87 199.67
  A 0.29 0.29 0.0 0 1 266.40 199.88
  Z"
/>
<path fill="#ffffff" d="
  M 594.32 287.45
  A 0.23 0.23 0.0 0 0 594.70 287.63
  Q 605.15 278.89 618.85 278.03
  C 644.83 276.39 659.27 294.26 659.67 319.07
  Q 660.01 340.44 659.84 379.52
  A 0.59 0.58 -0.0 0 1 659.25 380.10
  L 628.44 380.10
  A 0.77 0.77 0.0 0 1 627.67 379.32
  Q 627.85 341.28 627.71 324.25
  C 627.63 314.44 622.55 306.81 611.97 306.93
  Q 600.12 307.06 596.05 318.10
  C 594.21 323.07 594.32 327.18 594.37 333.71
  Q 594.42 340.26 594.33 379.76
  A 0.35 0.35 0.0 0 1 593.98 380.10
  L 562.85 380.10
  A 0.51 0.50 90.0 0 1 562.35 379.59
  L 562.35 244.40
  A 0.62 0.62 0.0 0 1 562.97 243.78
  L 593.74 243.78
  A 0.58 0.58 0.0 0 1 594.32 244.36
  L 594.32 287.45
  Z"
/>
<path fill="#ffffff" d="
  M 1431.44 244.33
  A 0.52 0.52 0.0 0 1 1431.96 243.81
  L 1464.10 243.81
  A 0.57 0.57 0.0 0 1 1464.67 244.38
  L 1464.67 287.02
  A 0.73 0.73 0.0 0 0 1465.95 287.51
  Q 1468.16 285.03 1471.62 283.30
  Q 1486.42 275.89 1502.34 278.61
  C 1524.77 282.43 1533.97 300.50 1534.12 321.52
  Q 1534.24 339.06 1534.11 379.49
  A 0.63 0.63 0.0 0 1 1533.48 380.12
  L 1501.57 380.12
  A 0.70 0.69 -90.0 0 1 1500.88 379.42
  Q 1500.94 328.83 1500.83 325.86
  C 1500.56 318.53 1497.95 310.10 1490.20 307.88
  C 1480.74 305.16 1470.44 308.21 1466.77 317.78
  C 1465.37 321.40 1464.74 325.46 1464.71 329.51
  Q 1464.57 356.26 1464.76 379.46
  A 0.65 0.65 0.0 0 1 1464.11 380.12
  L 1432.22 380.12
  A 0.79 0.78 -90.0 0 1 1431.44 379.33
  L 1431.44 244.33
  Z"
/>
<path fill="#ffffff" d="
  M 456.89 340.40
  C 463.98 345.93 473.89 349.53 483.19 352.02
  C 490.54 353.99 514.90 356.54 516.62 344.58
  C 518.00 334.93 505.05 331.45 498.24 329.77
  Q 486.93 326.97 477.22 324.05
  C 464.26 320.15 451.72 311.77 449.03 297.73
  C 444.45 273.81 456.99 256.04 479.86 249.76
  C 497.60 244.89 516.11 246.28 533.35 252.42
  Q 539.29 254.54 544.78 258.15
  A 0.63 0.63 0.0 0 1 545.02 258.91
  L 534.91 284.16
  A 1.04 1.04 0.0 0 1 533.41 284.67
  C 520.50 276.92 504.03 272.65 489.45 276.64
  Q 483.05 278.39 481.60 284.95
  C 479.75 293.30 489.77 296.07 495.94 297.89
  Q 499.91 299.07 504.88 300.13
  Q 512.51 301.76 521.92 305.06
  Q 532.21 308.66 537.64 313.09
  Q 551.52 324.40 549.77 344.08
  Q 547.93 364.86 529.28 374.86
  C 520.19 379.72 512.50 381.14 501.87 381.80
  Q 475.69 383.41 452.31 371.48
  Q 447.62 369.08 445.04 366.91
  A 1.24 1.24 0.0 0 1 444.72 365.44
  L 456.34 340.54
  A 0.36 0.36 0.0 0 1 456.89 340.40
  Z"
/>
<path fill="#ffffff" d="
  M 1052.06 366.81
  L 1034.43 366.81
  A 0.31 0.31 0.0 0 1 1034.16 366.65
  L 1003.75 311.87
  A 0.31 0.31 0.0 0 0 1003.17 312.02
  L 1003.17 379.82
  A 0.31 0.31 0.0 0 1 1002.86 380.13
  L 971.55 380.13
  A 0.31 0.31 0.0 0 1 971.24 379.82
  L 971.24 250.32
  A 0.31 0.31 0.0 0 1 971.55 250.01
  L 1000.60 250.01
  A 0.31 0.31 0.0 0 1 1000.87 250.16
  L 1043.63 324.22
  A 0.31 0.31 0.0 0 0 1044.17 324.22
  L 1085.70 250.21
  A 0.31 0.31 0.0 0 1 1085.97 250.05
  L 1115.81 250.05
  A 0.31 0.31 0.0 0 1 1116.12 250.36
  L 1116.12 379.79
  A 0.31 0.31 0.0 0 1 1115.81 380.10
  L 1084.26 380.10
  A 0.31 0.31 0.0 0 1 1083.95 379.79
  L 1083.95 310.17
  A 0.31 0.31 0.0 0 0 1083.37 310.02
  L 1052.33 366.65
  A 0.31 0.31 0.0 0 1 1052.06 366.81
  Z"
/>
<path fill="#ffffff" d="
  M 1305.24 282.91
  L 1305.24 307.21
  A 0.55 0.55 0.0 0 1 1304.69 307.76
  L 1283.24 307.76
  A 0.33 0.32 -0.0 0 0 1282.91 308.08
  Q 1282.72 327.23 1282.92 343.00
  C 1282.98 348.23 1284.52 353.45 1290.42 354.58
  Q 1297.65 355.96 1303.66 351.39
  A 0.62 0.61 62.4 0 1 1304.61 351.69
  L 1312.35 375.36
  A 0.58 0.58 0.0 0 1 1312.10 376.04
  C 1305.87 379.84 1298.92 381.33 1291.19 381.67
  C 1279.32 382.18 1267.94 380.09 1259.30 371.32
  C 1252.93 364.84 1250.41 355.21 1250.40 345.99
  Q 1250.38 327.81 1250.53 308.49
  A 0.76 0.76 0.0 0 0 1249.77 307.73
  L 1236.67 307.73
  A 0.56 0.56 0.0 0 1 1236.11 307.17
  L 1236.11 282.93
  A 0.54 0.54 0.0 0 1 1236.65 282.39
  L 1249.70 282.39
  A 0.79 0.78 0.0 0 0 1250.49 281.61
  L 1250.49 256.06
  A 0.39 0.39 0.0 0 1 1250.88 255.67
  L 1282.54 255.67
  A 0.29 0.28 -0.0 0 1 1282.83 255.95
  L 1282.83 281.64
  A 0.68 0.68 0.0 0 0 1283.51 282.32
  L 1304.65 282.32
  A 0.59 0.59 0.0 0 1 1305.24 282.91
  Z"
/>
<path fill="#ffffff" d="
  M 735.42 369.56
  A 0.50 0.49 62.6 0 0 734.52 369.27
  Q 728.17 378.33 716.98 380.75
  C 701.27 384.15 679.95 379.23 674.09 361.93
  C 671.63 354.67 671.48 347.05 674.05 339.85
  Q 678.54 327.23 693.25 322.73
  C 705.92 318.85 719.17 318.93 731.75 319.65
  A 0.47 0.47 0.0 0 0 732.25 319.20
  C 732.50 309.08 724.16 303.38 714.70 303.23
  Q 699.90 302.99 686.93 311.28
  A 0.51 0.51 0.0 0 1 686.20 311.09
  L 675.70 291.09
  A 0.82 0.80 -33.1 0 1 675.92 290.08
  C 693.99 276.16 728.51 273.26 747.91 285.52
  C 760.33 293.37 764.69 308.50 764.65 322.76
  Q 764.55 357.69 764.83 379.43
  A 0.69 0.69 0.0 0 1 764.14 380.13
  L 735.95 380.13
  A 0.53 0.53 0.0 0 1 735.42 379.60
  L 735.42 369.56
  Z
  M 731.72 338.23
  Q 729.83 338.52 715.73 338.86
  C 709.01 339.03 702.72 341.76 702.90 349.52
  C 703.02 354.44 706.09 358.16 711.03 359.13
  C 724.83 361.86 734.02 352.50 732.37 338.72
  A 0.57 0.56 -7.9 0 0 731.72 338.23
  Z"
/>
<path fill="#ffffff" d="
  M 883.84 338.58
  A 0.31 0.31 0.0 0 0 883.54 338.95
  C 885.11 345.69 890.50 351.25 897.06 353.64
  Q 906.27 356.98 916.64 354.35
  C 921.49 353.12 926.06 349.78 929.99 346.51
  A 0.89 0.87 -42.6 0 1 931.16 346.55
  L 948.21 362.71
  A 1.06 1.06 0.0 0 1 948.37 364.04
  Q 946.14 367.51 941.46 371.23
  C 926.77 382.94 903.54 384.11 885.75 378.77
  Q 876.41 375.97 867.24 368.42
  C 849.84 354.09 846.53 329.12 854.44 309.10
  C 859.53 296.22 870.73 285.43 883.97 281.13
  C 901.87 275.31 923.65 277.03 938.33 289.30
  C 952.40 301.07 957.24 319.81 955.15 337.62
  A 1.09 1.08 3.3 0 1 954.07 338.58
  L 883.84 338.58
  Z
  M 903.76 319.40
  Q 915.86 319.37 923.27 319.42
  A 0.65 0.65 0.0 0 0 923.91 318.62
  C 921.60 308.71 914.13 302.35 903.73 302.37
  C 893.32 302.39 885.87 308.77 883.61 318.70
  A 0.65 0.65 0.0 0 0 884.25 319.50
  Q 891.66 319.42 903.76 319.40
  Z"
/>
<path fill="#ffffff" d="
  M 1418.75 304.31
  A 0.62 0.61 63.6 0 1 1418.48 305.13
  L 1393.27 318.37
  A 0.47 0.47 0.0 0 1 1392.62 318.13
  Q 1392.40 317.58 1389.80 313.95
  C 1383.62 305.30 1372.65 303.34 1362.88 306.84
  Q 1355.61 309.44 1352.29 315.48
  C 1344.14 330.36 1349.70 351.93 1368.94 353.91
  Q 1384.42 355.50 1392.42 341.55
  A 0.72 0.71 -62.6 0 1 1393.34 341.25
  L 1418.25 352.88
  A 1.23 1.22 -64.7 0 1 1418.83 354.52
  Q 1416.20 359.97 1413.29 363.92
  Q 1410.87 367.21 1405.43 371.40
  C 1390.10 383.19 1365.42 384.63 1347.91 377.43
  C 1327.69 369.12 1314.51 351.01 1315.33 328.86
  C 1315.94 312.71 1322.55 299.91 1334.49 289.90
  Q 1340.49 284.87 1350.20 281.45
  Q 1369.69 274.57 1389.71 280.25
  C 1403.04 284.03 1412.82 292.21 1418.75 304.31
  Z"
/>
<path fill="#ffffff" d="
  M 812.34 291.18
  A 0.26 0.26 0.0 0 0 812.81 291.34
  C 820.39 281.09 832.12 277.83 844.49 278.09
  A 0.40 0.40 0.0 0 1 844.88 278.49
  L 844.88 307.59
  A 0.79 0.78 2.7 0 1 844.02 308.37
  Q 835.84 307.62 829.28 308.93
  C 819.35 310.92 814.58 320.94 814.38 330.76
  Q 814.12 343.86 814.16 379.06
  A 1.05 1.04 -0.3 0 1 813.11 380.11
  L 782.03 380.11
  A 0.41 0.41 0.0 0 1 781.62 379.70
  L 781.62 280.32
  A 0.70 0.69 -90.0 0 1 782.31 279.62
  L 811.83 279.62
  A 0.52 0.51 -90.0 0 1 812.34 280.14
  L 812.34 291.18
  Z"
/>
<path fill="#ffffff" d="
  M 1195.60 369.43
  A 0.45 0.45 0.0 0 0 1194.76 369.20
  C 1186.34 383.12 1165.83 384.13 1152.03 379.20
  Q 1132.99 372.38 1131.64 352.21
  C 1130.15 329.88 1149.73 320.74 1169.00 319.73
  Q 1180.23 319.15 1192.16 319.50
  A 0.23 0.23 0.0 0 0 1192.40 319.27
  Q 1192.17 308.53 1182.76 304.86
  C 1171.74 300.57 1156.66 305.08 1147.13 311.19
  A 0.86 0.85 59.5 0 1 1145.91 310.87
  L 1135.55 291.14
  A 0.81 0.81 0.0 0 1 1135.76 290.13
  C 1145.10 282.69 1159.14 279.03 1170.94 278.17
  C 1193.79 276.52 1218.63 283.25 1223.75 308.96
  C 1224.85 314.49 1225.40 319.72 1225.38 325.71
  Q 1225.27 361.93 1225.50 379.69
  A 0.43 0.43 0.0 0 1 1225.07 380.13
  L 1196.11 380.13
  A 0.51 0.51 0.0 0 1 1195.60 379.62
  L 1195.60 369.43
  Z
  M 1191.99 338.37
  Q 1190.07 338.62 1175.75 338.69
  C 1168.92 338.73 1162.49 341.38 1162.52 349.26
  C 1162.54 354.26 1165.59 358.09 1170.58 359.18
  C 1184.53 362.22 1194.04 352.90 1192.64 338.88
  A 0.58 0.57 -6.8 0 0 1191.99 338.37
  Z"
/>
<path fill="#074e2c" d="
  M 903.73 302.37
  C 914.13 302.35 921.60 308.71 923.91 318.62
  A 0.65 0.65 0.0 0 1 923.27 319.42
  Q 915.86 319.37 903.76 319.40
  Q 891.66 319.42 884.25 319.50
  A 0.65 0.65 0.0 0 1 883.61 318.70
  C 885.87 308.77 893.32 302.39 903.73 302.37
  Z"
/>
<path fill="#074e2c" d="
  M 731.72 338.23
  A 0.57 0.56 -7.9 0 1 732.37 338.72
  C 734.02 352.50 724.83 361.86 711.03 359.13
  C 706.09 358.16 703.02 354.44 702.90 349.52
  C 702.72 341.76 709.01 339.03 715.73 338.86
  Q 729.83 338.52 731.72 338.23
  Z"
/>
<path fill="#074e2c" d="
  M 1192.64 338.88
  C 1194.04 352.90 1184.53 362.22 1170.58 359.18
  C 1165.59 358.09 1162.54 354.26 1162.52 349.26
  C 1162.49 341.38 1168.92 338.73 1175.75 338.69
  Q 1190.07 338.62 1191.99 338.37
  A 0.58 0.57 -6.8 0 1 1192.64 338.88
  Z"
/>
</svg>
