<svg xmlns="http://www.w3.org/2000/svg" width="1202.410" height="253.790" viewBox="0 0 1202.410 253.790" fill="none">
  <path d="M 738.02 4.94 C 741.45 1.66 745.67 0 750.69 0 C 755.71 0 760.2 1.64 763.63 4.94 C 767.06 8.22 768.78 12.4 768.78 17.47 C 768.78 22.54 767.06 26.77 763.63 30.15 C 760.2 33.54 755.89 35.22 750.69 35.22 C 745.49 35.22 741.46 33.53 738.02 30.15 C 734.58 26.76 732.87 22.54 732.87 17.47 C 732.87 12.4 734.57 8.22 738.02 4.94 Z M 169.884 168.81 L 169.89 168.82 L 169.9 168.81 L 169.884 168.81 Z M 154.27 141.83 L 169.884 168.81 L 84.51 168.81 L 69.69 194.41 C 67.36 198.42 63.13 200.87 58.54 200.87 L 31.28 200.87 C 14 200.87 0 186.7 0 169.22 L 0 36.41 C 0 18.94 14 4.77 31.25 4.77 L 58.51 4.77 C 63.1 4.77 67.35 7.22 69.66 11.23 L 84.47 36.83 L 39.49 36.83 C 35.89 36.83 32.96 39.8 32.96 43.44 L 32.96 162.21 C 32.96 165.86 35.89 168.82 39.49 168.82 L 84.48 168.82 L 100.1 141.83 L 100.09 141.83 C 101.9 138.73 105.19 136.81 108.76 136.81 L 145.6 136.81 C 149.18 136.81 152.46 138.72 154.27 141.83 Z M 108.72 68.85 C 105.16 68.85 101.86 66.95 100.05 63.83 L 100.06 63.83 L 84.46 36.85 L 169.89 36.85 L 154.3 63.83 L 154.29 63.83 C 152.49 66.93 149.19 68.85 145.62 68.85 L 108.72 68.85 Z M 223.11 4.77 L 195.86 4.77 C 191.27 4.77 187.04 7.24 184.71 11.23 L 169.9 36.84 L 214.89 36.84 C 218.49 36.84 221.42 39.8 221.42 43.45 L 221.42 162.22 C 221.42 165.86 218.49 168.83 214.89 168.83 L 169.88 168.83 L 184.7 194.43 C 187.01 198.44 191.26 200.89 195.85 200.89 L 223.11 200.89 C 240.38 200.89 254.39 186.72 254.39 169.24 L 254.39 36.42 C 254.39 18.94 240.39 4.77 223.11 4.77 Z M 443.12 86.17 L 345.15 86.17 L 345.15 5.34 L 315.65 5.34 L 315.65 202.52 L 345.15 202.52 L 345.15 111.52 L 443.12 111.52 L 443.12 202.52 L 472.62 202.52 L 472.62 5.34 L 443.12 5.34 L 443.12 86.17 Z M 552.21 58.35 C 563.34 58.35 573.91 60.52 582.82 64.83 L 582.81 64.83 C 591.73 69.16 598.68 75.4 603.69 83.56 C 608.7 91.72 611.21 101.37 611.21 112.43 L 611.21 202.57 L 583.94 202.57 L 583.94 180.6 C 580.97 187.37 575.44 193.09 567.38 197.78 C 559.3 202.47 550.45 204.82 540.79 204.82 C 531.13 204.82 522.04 203.13 514.62 199.75 L 514.65 199.75 C 507.23 196.37 501.48 191.63 497.39 185.52 C 493.3 179.42 491.26 172.23 491.26 163.97 C 491.26 154.58 493.49 146.61 497.95 140.03 C 502.4 133.46 509.31 128.3 518.68 124.54 C 528.05 120.78 540.06 118.16 554.72 116.66 L 583.93 113.43 L 583.93 109.35 C 583.93 100.52 581 93.62 575.16 88.64 C 569.32 83.66 561.66 81.18 552.21 81.18 C 543.3 81.18 535.97 83.58 530.22 88.37 C 524.47 93.16 521.04 99.97 519.92 108.78 L 492.65 108.78 C 493.94 99.57 497.14 91.08 502.25 83.28 C 507.36 75.48 514.17 69.38 522.71 64.97 C 531.25 60.56 541.08 58.35 552.21 58.35 Z M 564.87 176.39 C 570.9 172.64 575.59 167.52 578.93 161.04 L 578.92 161.04 C 582.26 154.57 583.93 147.48 583.93 139.77 L 583.93 134.33 L 555.84 137.8 C 546.93 138.74 539.83 140.2 534.55 142.17 C 529.26 144.14 525.32 146.77 522.72 150.05 C 520.12 153.33 518.82 157.61 518.82 162.87 C 518.82 168.88 521.08 173.57 525.63 176.95 C 530.18 180.34 536.43 182.02 544.41 182.02 C 552.39 182.02 558.83 180.15 564.87 176.39 Z M 661.05 3.1 L 633.78 3.1 L 633.78 202.53 L 661.05 202.53 L 661.05 3.1 Z M 685.55 3.1 L 712.82 3.1 L 712.82 202.53 L 685.55 202.53 L 685.55 3.1 Z M 764.59 60.56 L 737.32 60.56 L 737.32 202.53 L 764.59 202.53 L 764.59 60.56 Z M 878 64.66 C 886.62 68.89 892.98 74.57 897.07 81.71 L 897.07 3.1 L 924.63 3.1 L 924.63 202.51 L 897.07 202.51 L 897.07 181.11 C 892.98 188.26 886.62 193.98 878 198.29 C 869.38 202.61 860.13 204.77 850.31 204.77 C 836.39 204.77 824.18 201.77 813.71 195.77 C 803.22 189.76 795.1 181.22 789.36 170.14 C 783.61 159.07 780.74 146.2 780.74 131.55 C 780.74 116.9 783.61 104.04 789.36 92.96 C 795.12 81.88 803.24 73.34 813.71 67.33 C 824.2 61.32 836.39 58.31 850.31 58.31 C 860.14 58.31 869.38 60.43 878 64.66 Z M 875.78 174.51 C 882.55 170.28 887.78 164.46 891.5 157.04 C 895.22 149.62 897.07 141.13 897.07 131.54 C 897.07 121.95 895.16 113.42 891.36 105.91 C 887.55 98.4 882.26 92.58 875.49 88.44 C 868.72 84.32 861.16 82.24 852.81 82.24 C 844.46 82.24 836.67 84.3 829.99 88.44 C 823.31 92.58 818.07 98.4 814.27 105.91 C 810.47 113.42 808.56 121.97 808.56 131.54 C 808.56 141.11 810.46 149.66 814.27 157.17 C 818.07 164.68 823.32 170.5 829.99 174.64 C 836.67 178.78 844.28 180.84 852.81 180.84 C 861.34 180.84 868.99 178.72 875.76 174.51 L 875.78 174.51 Z M 1033.98 64.83 C 1025.07 60.52 1014.5 58.35 1003.37 58.35 C 992.24 58.35 982.41 60.56 973.87 64.97 C 965.33 69.38 958.52 75.48 953.41 83.28 C 948.3 91.08 945.1 99.57 943.81 108.78 L 971.08 108.78 C 972.2 99.97 975.63 93.16 981.38 88.37 C 987.14 83.58 994.47 81.18 1003.38 81.18 C 1012.83 81.18 1020.49 83.66 1026.33 88.64 C 1032.17 93.62 1035.09 100.52 1035.09 109.35 L 1035.09 113.43 L 1005.88 116.66 C 991.22 118.16 979.21 120.78 969.84 124.54 C 960.47 128.3 953.55 133.46 949.11 140.03 C 944.65 146.61 942.43 154.58 942.43 163.97 C 942.43 172.23 944.47 179.42 948.56 185.52 C 952.65 191.63 958.4 196.37 965.82 199.75 L 965.79 199.75 C 973.21 203.13 982.3 204.82 991.96 204.82 C 1001.62 204.82 1010.47 202.47 1018.55 197.78 C 1026.61 193.09 1032.14 187.37 1035.1 180.6 L 1035.1 202.57 L 1062.38 202.57 L 1062.38 112.43 C 1062.38 101.37 1059.87 91.72 1054.86 83.56 C 1049.85 75.4 1042.9 69.16 1033.99 64.83 L 1033.98 64.83 Z M 1030.09 161.04 C 1026.75 167.52 1022.05 172.64 1016.03 176.39 C 1009.99 180.15 1003.55 182.02 995.57 182.02 C 987.59 182.02 981.34 180.34 976.79 176.95 C 972.24 173.57 969.98 168.88 969.98 162.87 C 969.98 157.61 971.28 153.33 973.88 150.05 C 976.48 146.77 980.42 144.14 985.71 142.17 C 990.99 140.2 998.09 138.74 1007 137.8 L 1035.09 134.33 L 1035.09 139.77 C 1035.09 147.48 1033.43 154.57 1030.08 161.04 L 1030.09 161.04 Z M 1134.4 165.79 L 1173.46 60.56 L 1202.41 60.56 L 1127.26 253.79 L 1098.87 253.79 L 1120.17 201.73 L 1065.46 60.56 L 1094.95 60.56 L 1134.4 165.79 Z" fill="#FFFFFF" fill-rule="evenodd"></path>
</svg>