<svg width="157" height="34" viewBox="0 0 157 34" fill="none" xmlns="http://www.w3.org/2000/svg">
<g clip-path="url(#clip0_7118_397)">
<path d="M105.413 3.89782C101.366 3.89782 98.9721 6.07391 98.2755 7.72778V4.33287H94.0977V33.9281H98.4499V22.6989C99.1024 24.3528 101.366 26.5373 105.413 26.5373C111.506 26.5373 115.249 21.6976 115.249 15.2125C115.249 8.29233 111.506 3.89697 105.413 3.89697V3.89782ZM104.673 22.8301C100.408 22.8301 98.449 19.1305 98.449 15.2133C98.449 11.2962 100.408 7.55342 104.673 7.55342C108.938 7.55342 110.896 10.5133 110.896 15.2133C110.896 19.1305 108.807 22.8301 104.673 22.8301Z" fill="#F9FF4D"/>
<path d="M126.385 3.89771C120.814 3.89771 116.941 7.03108 116.854 11.5145H121.249C121.511 8.72896 123.513 7.20544 126.385 7.20544C128.518 7.20544 130.694 8.33708 130.694 10.6004C130.694 12.2111 129.432 12.6893 127.909 12.9508L123.47 13.6474C119.552 14.2568 116.375 15.9978 116.375 20.0885C116.375 24.1792 119.813 26.5296 124.078 26.5296C127.299 26.5296 129.736 25.2236 131.085 23.0475V25.7814H135.263V12.0367C135.263 6.8144 131.781 3.89771 126.385 3.89771H126.385ZM130.912 17.8252C130.912 21.2201 128.039 23.2219 124.993 23.2219C122.904 23.2219 120.902 22.1774 120.902 19.9141C120.902 17.3902 123.295 16.6496 126.125 16.2145L130.912 15.4308V17.8244V17.8252Z" fill="#F9FF4D"/>
<path d="M152.214 4.3396L145.991 20.5304L139.941 4.3396H135.197L143.597 25.6223L140.464 33.9348H144.859L156.785 4.3396H152.214Z" fill="#F9FF4D"/>
<path d="M83.252 3.90107C80.166 3.90107 78.226 5.82156 77.3449 7.14448V0.0651855H70.2462V6.85332L69.4395 6.20498C67.5927 4.72124 65.0137 3.89853 61.9828 3.89853C58.5582 3.89853 55.3047 5.25531 53.2784 7.46527L52.9043 7.87408L52.5268 7.46865C50.3778 5.16475 47.2207 3.89684 43.637 3.89684C40.3572 3.89684 37.4651 4.89813 35.3321 6.74075V6.73905C35.2974 6.76868 34.4739 7.56176 34.2614 7.80806L33.8814 8.24819C32.8928 5.74961 30.7362 3.90192 26.4559 3.90192C22.9281 3.90192 20.7241 5.8224 19.4012 7.5863C18.5192 5.8224 16.3144 3.90192 12.7874 3.90192C9.7006 3.90192 7.71663 5.8224 6.83468 7.14533V4.34289H0V25.7822H6.83468V13.1615C6.83468 11.2428 8.39037 9.68707 10.3092 9.68707C12.2279 9.68707 13.7836 11.2428 13.7836 13.1615V25.7822H20.8291V13.1615C20.8291 11.2428 22.3848 9.68707 24.3035 9.68707C26.2223 9.68707 27.778 11.2428 27.778 13.1615V25.7822H34.6102V23.0221L35.4007 23.7026C37.5565 25.5579 40.4182 26.5381 43.6751 26.5381C47.4331 26.5381 50.393 25.4479 52.542 23.3869L52.9043 23.0399L53.2589 23.3945C55.2336 25.3692 58.3856 26.5389 62.0657 26.5389C64.8741 26.5389 67.4979 25.6121 69.4522 24.1571L70.2436 23.568V25.7814H77.3458V13.1607C77.3458 11.2419 78.9015 9.68622 80.8203 9.68622C82.739 9.68622 84.2947 11.2419 84.2947 13.1607V25.7814H91.407V12.7197C91.407 7.87069 88.762 3.90277 83.252 3.90107ZM39.3339 11.3486C40.3242 10.1221 41.8384 9.3375 43.5372 9.3375C45.2359 9.3375 46.7526 10.1238 47.7429 11.3511V12.3693H39.3339V11.3486ZM64.9189 20.1317H64.9181L64.792 20.2053C63.9396 20.6937 62.979 20.9848 61.9701 20.9848C60.1173 20.9848 58.6454 20.2332 57.5806 19.0533H48.5952C47.4399 20.2374 45.8267 20.973 44.0416 20.973C42.1262 20.973 40.4089 20.1257 39.2417 18.7867V16.7088H56.3212L64.9189 18.2247V20.1317ZM70.247 15.0778C70.0185 14.8967 68.2741 13.5822 64.9181 12.9694L59.1363 11.9503L59.138 10.4497C59.9726 9.74293 61.0509 9.31719 62.2299 9.31719C63.7331 9.31719 65.0738 10.0104 65.9524 11.0938H70.247V15.0778Z" fill="#F9FF4D"/>
</g>
<defs>
<clipPath id="clip0_7118_397">
<rect width="156.784" height="33.8696" fill="white" transform="translate(0 0.0651855)"/>
</clipPath>
</defs>
</svg>
